<?xml version="1.0" encoding="UTF-8"?>
<svg version="1.1" viewBox="0 0 176.28 271.68" xmlns="http://www.w3.org/2000/svg" xmlns:xlink="http://www.w3.org/1999/xlink">
 <defs>
  <linearGradient id="w">
   <stop stop-color="#a7e6ea" offset="0"/>
   <stop stop-color="#fff" offset="1"/>
  </linearGradient>
  <linearGradient id="v">
   <stop stop-color="#052" offset="0"/>
   <stop offset="1"/>
  </linearGradient>
  <linearGradient id="a">
   <stop stop-color="#f0ae4e" offset="0"/>
   <stop stop-color="#e3dab6" offset="1"/>
  </linearGradient>
  <linearGradient id="b">
   <stop stop-color="#f0ae4e" offset="0"/>
   <stop stop-color="#a74f0e" offset="1"/>
  </linearGradient>
  <linearGradient id="y" x1="216.11" x2="209.95" y1="295.8" y2="274.29" gradientUnits="userSpaceOnUse">
   <stop stop-color="#000080" offset="0"/>
   <stop offset="1"/>
  </linearGradient>
  <linearGradient id="z" x1="227.63" x2="222.75" y1="342.35" y2="321.64" gradientUnits="userSpaceOnUse" xlink:href="#b"/>
  <linearGradient id="aa" x1="205.07" x2="214.5" y1="274.36" y2="297.57" gradientUnits="userSpaceOnUse" xlink:href="#a"/>
  <linearGradient id="ab" x1="156.74" x2="136.86" y1="213.06" y2="206.63" gradientUnits="userSpaceOnUse" xlink:href="#a"/>
  <linearGradient id="ac" x1="231.46" x2="250.93" y1="191.19" y2="176.01" gradientUnits="userSpaceOnUse" xlink:href="#a"/>
  <linearGradient id="ad" x1="192.7" x2="189.77" y1="259.46" y2="249.67" gradientUnits="userSpaceOnUse" xlink:href="#v"/>
  <linearGradient id="ae" x1="191.95" x2="189.99" y1="259" y2="250.33" gradientUnits="userSpaceOnUse" xlink:href="#v"/>
  <linearGradient id="af" x1="223.98" x2="230.05" y1="199.27" y2="188.66" gradientUnits="userSpaceOnUse" xlink:href="#b"/>
  <linearGradient id="ag" x1="169.84" x2="160.71" y1="214.55" y2="207.73" gradientUnits="userSpaceOnUse" xlink:href="#b"/>
  <linearGradient id="ah" x1="195.98" x2="192.55" y1="206.98" y2="165.81" gradientUnits="userSpaceOnUse" xlink:href="#a"/>
  <linearGradient id="ai" x1="226.92" x2="227.47" y1="361.5" y2="347.57" gradientUnits="userSpaceOnUse">
   <stop stop-color="#fc1818" offset="0"/>
   <stop stop-color="#810202" offset="1"/>
  </linearGradient>
  <linearGradient id="aj" x1="229.11" x2="213.48" y1="365.84" y2="365.67" gradientUnits="userSpaceOnUse">
   <stop stop-color="#fc1818" offset="0"/>
   <stop stop-color="#feb4b4" offset=".76218"/>
   <stop stop-color="#fc1818" offset="1"/>
  </linearGradient>
  <linearGradient id="ak" x1="221.55" x2="223.61" y1="376.06" y2="380.16" gradientUnits="userSpaceOnUse">
   <stop stop-color="#fc0" offset="0"/>
   <stop stop-color="#f70" offset="1"/>
  </linearGradient>
  <linearGradient id="al" x1="227.66" x2="219.22" y1="391.39" y2="382.99" gradientUnits="userSpaceOnUse">
   <stop stop-color="#fc0" offset="0"/>
   <stop stop-color="#fff" offset=".25"/>
   <stop stop-color="#fc0" offset=".5"/>
   <stop stop-color="#ff8200" offset="1"/>
  </linearGradient>
  <filter id="x" color-interpolation-filters="sRGB">
   <feGaussianBlur stdDeviation="3.0088381"/>
  </filter>
  <linearGradient id="am" x1="205.66" x2="216.87" y1="238.7" y2="235.11" gradientUnits="userSpaceOnUse" xlink:href="#w"/>
  <linearGradient id="an" x1="176.79" x2="186.43" y1="246.47" y2="244.51" gradientUnits="userSpaceOnUse" xlink:href="#w"/>
 </defs>
 <g transform="translate(-120 -135.21)">
  <rect x="122.5" y="207.72" width="168.21" height="168.21" ry="0" fill="#49c5ff" stroke="#fff" stroke-linejoin="round" stroke-width="5"/>
  <path transform="matrix(1 0 -.03418 1 9.2645 0)" d="m216.48 142.44-5.5938 4.9688c-13.803 9.9158-15.926 28.568-14.219 44.312-4.1083-2.1658-8.9123-2.7458-13.375-1.2812 3.7916 3.7178 7.8472 8.5871 10.723 13.009-1.7497-1.1958-3.8999-1.4291-6.4735 0.11104-2.1962-8.5255-12.147-23.856-20.562-24.87-15.902-1.9173-22.838 14.442-22.281 23.094-0.0785 11.437-0.97117 22.737-1.9062 34.062-0.16462 7.2827 6.8841 13.683 13.812 14.281 9.0194-0.97056 11.593-11.747 13.094-19.156 0.53037-3.0081 0.90239-6.0368 1.1875-9.0938 3.5712 1.8037 6.2518 4.8609 5.8438 9.2188 2.5341 16.654 5.9015 34.351 1.125 50.812-3.5002 4.7254-1.942 11.158 1.9688 14.812-0.74984 9.9547 1.3176 21.006 7.7812 28.844 7.7104 6.5978 19.341 5.4583 27.438 0.125 2.0066-1.0541 4.006-2.1076 6.0312-3.125 4.0958 5.0434 7.262 10.852 8.0938 17.188-3.9878 2.0734-7.2674 6.1059-7.75 10.375-0.0513-0.11412-0.10669-0.22932-0.15625-0.34375-0.0937 2.1562-0.1875 4.3125-0.28125 6.4688 0.58432 5.5285-2.1908 12.38 0.46875 17.094 1.9857 1.9804 4.3701 3.4181 6.8438 4.6875-4.6404 5.9843-6.028 16.152 1.2188 20.625 8.7506 4.3297 17.356-6.1004 16.312-14.469-0.055-2.0264-0.72347-4.0612-1.8438-5.75 3.9888-1.0718 8.5747-2.1745 10.688-5.1562 0.39438-6.6569 0.79673-13.312 1.1875-19.969 1.5629-5.6104-2.6541-10.792-7.5312-13.469 0.0117-8.6008-0.21832-17.194 0.375-25.781 9.8992-1.7136 22.879-1.576 27.75-12.062 5.0487-10.543-2.7483-20.898-8.1875-29.438-3.3797-2.5513 2.3117-4.624 1.4062-8.0312-0.31331-8.4096-8.0856-13.838-14.562-17.688-8.4378-10.888-13.294-24.716-15.094-38.219 0.37612-4.0554 4.1861-7.3858 5.9688-11 1.3196 2.9293 2.745 5.8 4.4688 8.5 6.6954 6.6975 16.481 10.856 25.969 10.594 9.5704-2.0995 14.042-15.523 6.5625-22.438-4.289-4.8048-10.296-7.6862-13.406-13.719-7.0076-8.6882-12.095-23.202-25.594-22.562-7.0494-0.0886-12.177 5.6208-13.656 12.125-2.7544 8.5278-4.0143 17.425-4.875 26.344-2.9355-1.655-5.4458-4.1089-9.2188-4.7188 1.4225-3.6061 4.141-6.4426 6.625-9.3438-4.3269-0.2986-9.2947 2.1549-11.5 5.0938-2.5448-15.119-0.43016-30.779 5.125-45.062z" fill-opacity=".27451" filter="url(#x)"/>
  <path d="m205.41 142.44-5.5938 4.9688c-13.803 9.9158-15.926 28.568-14.219 44.312-4.1083-2.1658-8.9123-2.7458-13.375-1.2812 3.7916 3.7178 7.8472 8.5871 10.723 13.009-1.7497-1.1958-3.8999-1.4291-6.4735 0.11104-2.1962-8.5255-12.147-23.856-20.562-24.87-15.902-1.9173-22.838 14.442-22.281 23.094-0.0785 11.437-0.97117 22.737-1.9062 34.062-0.16462 7.2827 6.8841 13.683 13.812 14.281 9.0194-0.97056 11.593-11.747 13.094-19.156 0.53037-3.0081 0.90239-6.0368 1.1875-9.0938 3.5712 1.8037 6.2518 4.8609 5.8438 9.2188 2.5341 16.654 5.9015 34.351 1.125 50.812-3.5002 4.7254-1.942 11.158 1.9688 14.812-0.74984 9.9547 1.3176 21.006 7.7812 28.844 7.7104 6.5978 19.341 5.4583 27.438 0.125 2.0066-1.0541 4.006-2.1076 6.0312-3.125 4.0958 5.0434 7.262 10.852 8.0938 17.188-3.9878 2.0734-7.2674 6.1059-7.75 10.375-0.0513-0.11412-0.10669-0.22932-0.15625-0.34375-0.0937 2.1562-0.1875 4.3125-0.28125 6.4688 0.58432 5.5285-2.1908 12.38 0.46875 17.094 1.9857 1.9804 4.3701 3.4181 6.8438 4.6875-4.6404 5.9843-6.028 16.152 1.2188 20.625 8.7506 4.3297 17.356-6.1004 16.312-14.469-0.055-2.0264-0.72347-4.0612-1.8438-5.75 3.9888-1.0718 8.5747-2.1745 10.688-5.1562 0.39438-6.6569 0.79673-13.312 1.1875-19.969 1.5629-5.6104-2.6541-10.792-7.5312-13.469 0.0117-8.6008-0.21832-17.194 0.375-25.781 9.8992-1.7136 22.879-1.576 27.75-12.062 5.0487-10.543-2.7483-20.898-8.1875-29.438-3.3797-2.5513 2.3117-4.624 1.4062-8.0312-0.31331-8.4096-8.0856-13.838-14.562-17.688-8.4378-10.888-13.294-24.716-15.094-38.219 0.37612-4.0554 4.1861-7.3858 5.9688-11 1.3196 2.9293 2.745 5.8 4.4688 8.5 6.6954 6.6975 16.481 10.856 25.969 10.594 9.5704-2.0995 14.042-15.523 6.5625-22.438-4.289-4.8048-10.296-7.6862-13.406-13.719-7.0076-8.6882-12.095-23.202-25.594-22.562-7.0494-0.0886-12.177 5.6208-13.656 12.125-2.7544 8.5278-4.0143 17.425-4.875 26.344-2.9355-1.655-5.4458-4.1089-9.2188-4.7188 1.4225-3.6061 4.141-6.4426 6.625-9.3438-4.3269-0.2986-9.2947 2.1549-11.5 5.0938-2.5448-15.119-0.43016-30.779 5.125-45.062z" stroke="#000" stroke-linejoin="round" stroke-width="3"/>
  <path d="m201.16 148.91c-2.6786 2.5-17.156 10.616-13.406 44.188 3.3036 1.1607 6.0625 6.5625 6.0625 6.5625s-10.299-9.1875-17.531-7.9375c6.3393 6.25 10.469 13.75 10.469 13.75l-2.4062-0.5 1.6562 3.2812s-3.4142-3.954-8.8438-2.3125-7.1875 10.531-7.1875 10.531l0.375-7.0938s-5.6473-11.393-9.2188-13.625l-0.25 24.5s4.5524 2.4134 5.5625 4.8125c1.0102 2.3991 4.9075 29.021 4.7812 36.219s-0.89737 16.282-1.7812 19.312c-0.88388 3.0304-3.1301 5.437-2.625 8.5938 0.50508 3.1567 2.7812 5.2188 2.7812 5.2188 0.66964-3.1696 1.7188-4.7812 1.7188-4.7812s-2.4929-3.2035-0.0937-4.7188c2.3991-1.5152 3.2825 0.89102 3.1562 2.4062s-4.4113 6.9251-3.9062 14.375c0.50508 7.4499 3.4066 20.97 9.5938 24 6.1872 3.0305 10.864 2.8864 15.031 1.75s21.589-10.981 28.281-12.875c6.6923-1.894 29.049-3.9108 33.469-6.5625 4.4194-2.6516 8.0612-6.0425 8.1875-14.25 0.12627-8.2075-15.512-28.793-17.406-30.688-1.894-1.894 0.39229-3.8233 3.0312-2.6562 1.3954 0.61709-0.46875 2.625-0.46875 2.625l4.25 5.8438s4.797-3.1777 0.125-10.375-7.7119-6.5608-11.5-9.8438-10.088-15.153-13.75-27.906c-3.6618-12.753-2.0312-14.531-2.0312-14.531l6.6874-11.219-6.9375-16.938-5.3125 22.25-6.3125-1.0312s-6.043-3.894-11.094-2c-5.0508 1.894-6.9688 7.9375-6.9688 7.9375s-0.23928-4.5252 2.5938-7.4062c2.435-2.4763 8.125-2.9062 8.125-2.9062-2.5-1.6964-5.4062-1.1875-5.4062-1.1875-0.0893-3.125 4.0312-8.4375 4.0312-8.4375s-4.4196 0.72321-7.1875 8.3125c-0.625-2.1429-5.6652-22.545 1.6562-44.688zm4.625 52.969c0.52858 7e-3 1.052 0.11684 1.5625 0.25 9.7973 4.8539 13.858 16.314 18.5 25.531 2.9864 8.0027 7.2238 16.583 7.4062 24.938-4.8246 7.1612-13.634 10.184-22 8.625-9.3207-12.063-12.395-27.694-12.344-42.719 0.44539-5.5756-0.46478-14.686 6.3438-16.594 0.17645-0.0233 0.35506-0.0335 0.53125-0.0312zm-27.469 7.4688c0.9465-8e-3 1.9228 0.22191 2.7812 0.71875 9.139 6.7692 13.35 18.282 16.688 28.781 1.3939 8.5404 5.2979 17.543 3.0938 26.188-5.0704 5.8596-14.265 7.8991-21.688 5.8125-7.3211-14.239-9.0305-30.731-7.8438-46.625 0.82456-5.1322 0.79697-13.388 6.9688-14.875zm49.531 55.031c3.48-0.0754 7.8736 0.21548 9 3.9688 0.85926 8.0703 0.65229 17.241-3.875 24.156-9.7104 5.9121-21.585 7.9349-32.75 9.9062-7.2954 2.0674-13.199-3.7404-16.219-9.6562-3.3817-4.7658-2.9956-11.768 2.3438-14.969 11.839-7.6453 26.069-11.686 40.062-13.375 0.44695-0.0174 0.94036-0.0205 1.4375-0.0312z" fill="url(#ah)"/>
  <path d="m180.54 269.06s-5.625-10.714-6.9643-24.821-0.35714-31.071 4.2857-32.768c4.6429-1.6964 15.268 15.268 18.571 30.268s4.0179 21.161 2.2321 23.036c-1.7857 1.875-7.0536 4.1072-10.982 4.7322s-7.1429-0.44643-7.1429-0.44643z" fill="#fff"/>
  <path d="m212.32 259.33s7.6786 0.80357 11.875-1.4286c4.1964-2.2321 7.4107-6.4286 7.4107-6.4286-3.0357-14.554-13.661-40.446-23.125-46.607-9.4643-6.1607-7.5893 18.661-7.0536 24.018 0.53572 5.3571 2.3214 18.929 10.893 30.446z" fill="#fff"/>
  <path d="m231.58 291.09c3.0125-2.984 4.5457-17.804 3.283-22.35-1.2627-4.5457-16.415-2.0203-29.8 2.5254s-19.951 8.46-21.213 13.006 5.9638 15.14 10.48 16.162c6.6923 1.5152 33.992-6.1171 37.249-9.3439z" fill="url(#y)"/>
  <path d="m178.44 213.44c-4.5159 7.3369-3.148 16.94-3.25 25.312 0.48246 9.8696 2.3956 20.142 7.0312 28.688 5.2265 0.76948 11.714-0.76221 15.219-4.5625-0.0636-11.535-2.9564-23.301-7.5041-33.943-2.8638-5.266-5.7957-12.968-11.496-15.494z" fill="url(#an)"/>
  <path d="m215.92 201.43s2.2728-35.229 10.859-39.648c8.5863-4.4194 16.162-0.12627 20.708 6.4397 4.5457 6.566 13.258 19.951 17.046 22.223 3.7881 2.2728 8.7126 7.3236 9.2176 11.996 0.50508 4.672-4.0406 13.385-11.617 12.374-7.5762-1.0102-20.456-5.9346-23.36-13.385-2.9042-7.4499-12.879-29.042-12.879-29.042s-3.4093 12.627-4.1669 18.056c-0.75761 5.4296-1.0102 13.132-1.0102 13.132z" fill="url(#ac)"/>
  <path d="m174.71 204.42c0.50507-0.50507-10.682-22.68-19.647-23.816-8.9651-1.1364-17.425 8.0812-18.688 13.763s-1.0102 25.885-1.6415 30.683c-0.63135 4.7982-2.0203 12.753 0.12627 15.784 2.1466 3.0305 9.7227 11.869 16.162 4.2932 6.4397-7.5762 7.1973-25.38 7.5761-37.754s0.25254-16.541 0.25254-16.541c6.5053 5.5688 8.8254 9.3113 12.84 17.157 0.88678-1.589 1.807-2.3891 3.0191-3.5686z" fill="url(#ab)"/>
  <path d="m235.62 314.28c-8.5058 0.65989-16.347 3.7203-23.906 7.4062 2.7378 3.5985 6.3092 8.7882 7.375 12.625 1.7857 6.4286 0.71875 16.812 0.71875 16.812s6.2723 5.1518 11.094 3.1875c4.8214-1.9643 4.0938-4.4375 4.0938-4.4375s0.54464-17.683 0.1875-21.969c-0.20602-2.4722 0.12238-8.6564 0.4375-13.625z" fill="url(#z)"/>
  <path d="m237.12 342.28c-0.11148 4.7853-0.21875 8.9062-0.21875 8.9062s0.9085 2.8322-5.25 5.0938-14.156-3.6562-14.156-3.6562 0.54789-4.7824 0.375-10.156c-3.4233 1.9982-5.5938 5.0218-5.5938 8.4062 0 6.0168 6.8993 10.906 15.406 10.906s15.406-4.8895 15.406-10.906c0-3.4941-2.3524-6.6002-5.9688-8.5938z" fill="url(#ai)"/>
  <path d="m211.92 356.33-0.65625 15.062s2.3412 2.6405 6.25 4.4688c-0.0517-3.7372 1.6592-7.5202 5-8.5 4.0462-0.84847 6.5074 5.1916 2.9688 6.8125-0.0268 0.0538-0.0399 0.10297-0.0625 0.15625 2.4373-0.0866 4.5216 0.87038 6.0938 2.4062 5.8747-1.3306 10.094-3.75 10.094-3.75l0.90625-15.188c-2.5222 3.2303-6.4984 5.3863-9.875 5.8438-6.943 1.4456-16.548 0.0791-20.719-7.3125z" fill="url(#aj)"/>
  <path d="m224.58 379.21s-1.5468-1.8625-1.3574-4.2616 1.7362-2.7779 1.7362-2.7779 0.53664-1.3574-0.31567-2.2413c-0.85232-0.88389-2.7779-0.50508-2.7779-0.50508s-2.3928 2.8805-2.3676 6.5029c0.0217 3.1076 1.7526 6.3433 4.8298 6.3134 0.50507-1.1049 0.25253-3.0305 0.25253-3.0305z" fill="url(#ak)"/>
  <path d="m225.54 376.31c-0.10614 0-0.20665 0.0265-0.3125 0.0312 0.28646 0.78608 0.71259 1.5734 1 2.375 0.0169 0.0216 0.0464 0.0398 0.0625 0.0625 0.4014 0.56842 0.52965 1.4941 0.3125 2.5312-0.10171 0.48582-0.28161 0.93363-0.5 1.3438-0.55745 1.0468-1.4174 1.7812-2.25 1.7812-0.43455 0-0.7993-0.1943-1.0625-0.53125-1.3148-0.21615-2.6622-0.96206-3.4375-2.125-0.39911-0.46456-0.71708-1.0023-1-1.5625-1.4648 1.8424-2.5156 4.2137-2.875 6.7812-0.8264 5.9043 2.3482 10.719 7.0938 10.719s9.2674-4.8144 10.094-10.719-2.3795-10.688-7.125-10.688z" fill="url(#al)"/>
  <path transform="matrix(.79845 -.24621 0 .79845 39.687 103.51)" d="m216.43 283.7a16.289 6.6291 0 1 1 -32.577 0 16.289 6.6291 0 1 1 32.577 0z" fill="#fff"/>
  <path d="m239.56 263.75c-3.4331 0.0365-6.9588 0.24615-10.562 0.625 3.2379 0.035 6.8385 0.61917 7.8438 3.9688 0.85926 8.0703 0.65229 17.241-3.875 24.156-9.7104 5.9121-21.585 7.9349-32.75 9.9062-7.2954 2.0674-13.199-3.7404-16.219-9.6562-3.3817-4.7658-2.9956-11.768 2.3438-14.969 3.386-2.1866 6.9719-4.0613 10.688-5.6875-8.9748 3.4783-16.921 7.8299-23.469 12.688 0.64453 0.56487 0.88288 1.6867 0.8125 2.5312-0.12627 1.5152-4.4113 6.9251-3.9062 14.375 0.50508 7.4499 3.4066 20.97 9.5938 24 6.1872 3.0305 10.864 2.8864 15.031 1.75s21.589-10.981 28.281-12.875c6.6923-1.894 29.049-3.9108 33.469-6.5625 4.4194-2.6516 8.0612-6.0425 8.1875-14.25 0.11622-7.554-12.977-25.417-16.562-29.719-2.8786-0.22765-5.8518-0.3137-8.9062-0.28125z" fill="url(#aa)"/>
  <path transform="matrix(1.1116 0 .21112 1.1823 -72.783 -45.762)" d="m195.72 253.9a4.9876 8.902 0 1 1 -9.9753 0 4.9876 8.902 0 1 1 9.9753 0z"/>
  <path transform="matrix(.89694 0 .17036 .95406 -21.499 12.2)" d="m195.72 253.9a4.9876 8.902 0 1 1 -9.9753 0 4.9876 8.902 0 1 1 9.9753 0z" fill="url(#ae)"/>
  <path d="m205.53 205.94c-3.8122 4.8193-2.2527 12.189-2.4688 18.125 0.6905 11.679 3.2861 24.167 10.656 33.344 5.9549 0.88607 12.852-1.5507 15.625-6.9375-4.2853-15.273-9.6098-31.498-20.844-43.125-0.88936-0.59584-1.818-1.5721-2.9688-1.4062z" fill="url(#am)"/>
  <path transform="matrix(1.2279 0 .23322 1.2279 -71.166 -66.975)" d="m195.72 253.9a4.9876 8.902 0 1 1 -9.9753 0 4.9876 8.902 0 1 1 9.9753 0z"/>
  <path transform="matrix(1 0 .18993 1 -16.705 -9.1071)" d="m195.72 253.9a4.9876 8.902 0 1 1 -9.9753 0 4.9876 8.902 0 1 1 9.9753 0z" fill="url(#ad)"/>
  <path transform="matrix(.47368 0 .089966 .47368 109.33 124.88)" d="m195.72 253.9a4.9876 8.902 0 1 1 -9.9753 0 4.9876 8.902 0 1 1 9.9753 0z"/>
  <path transform="matrix(.47368 0 .089966 .47368 79.863 134.79)" d="m195.72 253.9a4.9876 8.902 0 1 1 -9.9753 0 4.9876 8.902 0 1 1 9.9753 0z"/>
  <path transform="matrix(.47368 0 .089966 .47368 77.72 131.31)" d="m195.72 253.9a4.9876 8.902 0 1 1 -9.9753 0 4.9876 8.902 0 1 1 9.9753 0z" fill="#fff"/>
  <path transform="matrix(.47368 0 .089966 .47368 106.65 121.67)" d="m195.72 253.9a4.9876 8.902 0 1 1 -9.9753 0 4.9876 8.902 0 1 1 9.9753 0z" fill="#fff"/>
  <path d="m181.59 305.59c-0.8876 0-1.5938 0.64852-1.5938 1.4375s0.70615 1.4375 1.5938 1.4375 1.625-0.64852 1.625-1.4375-0.7374-1.4375-1.625-1.4375zm10.875 4.1875c-0.8876 0-1.625 0.61727-1.625 1.4062s0.7374 1.4375 1.625 1.4375 1.5938-0.64852 1.5938-1.4375-0.70615-1.4062-1.5938-1.4062zm-7.125 4.4688c-0.8876 0-1.625 0.64852-1.625 1.4375s0.7374 1.4375 1.625 1.4375 1.5938-0.64852 1.5938-1.4375-0.70615-1.4375-1.5938-1.4375z"/>
  <path d="m252.5 284.42c0.83747-0.29409 1.7186 0.0838 1.98 0.82823 0.26142 0.74441-0.18996 1.5903-1.0274 1.8844-0.83746 0.29409-1.7481-0.0735-2.0095-0.81788-0.26142-0.74441 0.21945-1.6006 1.0569-1.8947zm-8.8732 7.5542c0.83746-0.2941 1.7377 0.044 1.9992 0.78839 0.26142 0.74441-0.21945 1.6006-1.0569 1.8947-0.83746 0.2941-1.7186-0.0838-1.98-0.82823-0.26142-0.74441 0.20032-1.5608 1.0378-1.8549zm8.2032 1.8555c0.83746-0.29409 1.7481 0.0735 2.0095 0.81788 0.26142 0.74441-0.21945 1.6006-1.0569 1.8947-0.83746 0.2941-1.7186-0.0838-1.98-0.82823-0.26142-0.74441 0.18997-1.5903 1.0274-1.8844z"/>
  <path d="m227.03 178.06-5.3125 22.25-1.5312-0.25c1.8325 3.4664 4.119 6.2611 6.75 8.0312 0.0426-1.4647 0.34375-1.875 0.34375-1.875l6.6875-11.219-6.9375-16.938z" fill="url(#af)"/>
  <path d="m161.12 195.75-0.25 24.5s4.5524 2.4134 5.5625 4.8125c0.0761 0.18083 0.17526 0.53137 0.28125 0.96875 1.7879-3.3185 3.1137-7.2957 3.8438-11.688-0.39422 1.2263-0.59375 2.125-0.59375 2.125l0.375-7.0938s-5.6473-11.393-9.2188-13.625z" fill="url(#ag)"/>
 </g>
</svg>
