<?xml version="1.0" ?><svg height="512" id="svg4156" version="1.1" width="512" xmlns="http://www.w3.org/2000/svg" xmlns:cc="http://creativecommons.org/ns#" xmlns:dc="http://purl.org/dc/elements/1.1/" xmlns:inkscape="http://www.inkscape.org/namespaces/inkscape" xmlns:rdf="http://www.w3.org/1999/02/22-rdf-syntax-ns#" xmlns:sodipodi="http://sodipodi.sourceforge.net/DTD/sodipodi-0.dtd" xmlns:svg="http://www.w3.org/2000/svg"><defs id="defs4158"/><g id="layer1" transform="translate(0,448)"><g id="g27090" style="fill:#4d4d4d;fill-opacity:1" transform="matrix(0.94117647,0,0,0.94117647,-1620.7206,-8375.1471)"><path d="m 1881.9688,8887.5938 c -21.5263,0 -39.5313,17.1843 -39.5313,38.7187 l 0,432.5313 c 0,21.5221 18.005,38.75 39.5313,38.75 l 225.0937,0 c 21.529,0 38.5313,-17.2278 38.5313,-38.75 l 0,-432.5313 c 0,-21.5334 -17.0023,-38.7187 -38.5313,-38.7187 l -225.0937,0 z m 80.0937,19.9062 64.1875,0.031 c 4.207,0.2122 7.5938,3.6855 7.5938,7.9376 0,4.2759 -3.5055,7.7867 -7.5626,8 l 0,0.062 -63.875,0 0,-0.062 c -5.0778,0 -8.2187,-3.6015 -8.2187,-8 0,-4.4028 3.476,-7.9688 7.875,-7.9688 z m -103.9063,35.7812 271.7188,0 0,375.2188 -271.7188,0 0,-375.2188 z M 1994,9334.0625 c 13.225,0 23.9375,10.691 23.9375,23.9063 0,13.2101 -10.7125,23.9374 -23.9375,23.9374 -13.217,0 -23.9375,-10.7273 -23.9375,-23.9374 0,-13.2153 10.7205,-23.9063 23.9375,-23.9063 z" id="path7895-0-3" style="fill:#4d4d4d;fill-opacity:1" transform="translate(0,-448)"/><path d="m 2024.486,8600.5835 2.911,0 c 0.964,19.3953 -13.565,39.735 -32.92,37.8191 -0.97,-13.5743 1.927,-17.47 8.694,-26.1689 5.829,-7.7452 15.494,-9.7017 21.315,-11.6502 z" id="path8537" style="fill:#4d4d4d;fill-opacity:1;fill-rule:nonzero;stroke:none"/><path d="m 2027.09,8640.0795 c 4.907,0.024 10.033,1.1556 15.841,4.06 5.789,2.9188 11.58,7.7538 13.505,12.6211 -10.631,8.699 -18.377,16.453 -16.46,33.8916 0.961,13.5335 9.704,26.1446 21.313,30.9791 l 0,0.9268 c -0.986,1.9482 -3.824,9.7548 -5.78,12.6652 -3.873,8.6746 -9.677,16.3965 -16.461,23.2123 -5.821,5.8208 -4.875,3.8414 -12.621,6.7517 l -3.839,0 c -2.887,-0.9292 -7.778,-1.9232 -11.651,-3.8392 -3.872,-0.9946 -8.704,-2.9125 -12.576,-2.9125 -6.767,0 -21.281,4.8359 -25.155,6.7517 l -6.795,0 c -8.724,-4.8261 -5.767,-0.9505 -14.475,-11.606 -7.745,-7.7453 -16.478,-23.2802 -19.373,-33.9359 -2.91,-7.7451 -4.863,-20.2848 -5.825,-22.2414 l 0,-14.5186 c 1.932,-3.8971 0.966,-10.625 5.825,-19.373 10.639,-19.3626 28.035,-28.0718 51.279,-19.3729 7.745,2.9188 9.695,4.8523 18.402,1.9417 9.075,-3.0216 16.665,-6.0416 24.846,-6.0017 z" id="path8539" style="fill:#4d4d4d;fill-opacity:1;fill-rule:nonzero;stroke:none"/></g></g></svg>